<?xml version="1.0" encoding="UTF-8"?>
<svg id="Layer_1" data-name="Layer 1" xmlns="http://www.w3.org/2000/svg" viewBox="0 0 1024 1024.04">
  <defs>
    <style>
      .cls-1 {
        fill: #fff;
      }
    </style>
  </defs>
  <path class="cls-1" d="M1006.84,924.39l-412.37-412.37L1006.84,99.65c22.42-22.42,22.76-59.74,0-82.5-22.99-22.99-59.74-22.76-82.5,0L511.98,429.52,99.61,17.15c-22.42-22.42-59.74-22.76-82.5,0-22.87,22.99-22.76,59.74,0,82.5l412.37,412.37L17.11,924.39c-22.42,22.42-22.76,59.74,0,82.5,22.99,22.99,59.74,22.76,82.5,0l412.37-412.37,412.37,412.37c22.42,22.42,59.74,22.76,82.5,0,22.99-22.87,22.76-59.63,0-82.5Z"/>
</svg>