<svg width="74" height="49" viewBox="0 0 74 49" fill="none" xmlns="http://www.w3.org/2000/svg">
<path d="M54.0733 1.78743C53.9513 1.29067 53.6283 0.860838 53.176 0.592384C52.7235 0.324045 52.1783 0.23924 51.6607 0.356297L1.54502 11.7009C1.02726 11.8179 0.579513 12.1278 0.299716 12.5618C0.0199186 12.9958 -0.0684703 13.519 0.0535329 14.0157L8.21651 47.2122C8.4344 48.0979 9.25795 48.6951 10.167 48.6951C10.3195 48.6951 10.4744 48.6783 10.6292 48.6434L60.7447 37.2993C61.2624 37.1821 61.7102 36.8723 61.99 36.4383C62.2698 36.0042 62.3582 35.4811 62.2361 34.9845L54.0733 1.78743ZM54.3226 19.5632L45.7376 14.7787L51.223 6.95721L54.3226 19.5632ZM5.01165 17.4175L13.5625 22.0619L8.11155 30.0235L5.01165 17.4175ZM7.44882 14.3187L47.599 5.23024L31.9079 27.6036L7.44882 14.3187ZM11.6602 44.4554L9.37959 35.1815L17.0611 23.9621L31.5475 31.8302C31.8588 31.9993 32.1986 32.0802 32.534 32.0802C33.1816 32.0802 33.8142 31.7791 34.1995 31.2299L43.493 17.9787L55.5909 24.7209L57.8714 33.9949L11.6602 44.4554Z" fill="black"/>
<path d="M71.9944 1.59668H59.3934C58.2856 1.59668 57.3878 2.45831 57.3878 3.52099C57.3878 4.58367 58.2857 5.4453 59.3934 5.4453H71.9944C73.1022 5.4453 74 4.58367 74 3.52099C74 2.45831 73.1022 1.59668 71.9944 1.59668Z" fill="black"/>
<path d="M69.8765 11.3977H61.5111C60.4033 11.3977 59.5055 12.2593 59.5055 13.322C59.5055 14.3847 60.4034 15.2463 61.5111 15.2463H69.8765C70.9843 15.2463 71.8821 14.3847 71.8821 13.322C71.8822 12.2593 70.9843 11.3977 69.8765 11.3977Z" fill="black"/>
<path d="M67.869 21.1987H63.5192C62.4113 21.1987 61.5135 22.0604 61.5135 23.123C61.5135 24.1857 62.4115 25.0473 63.5192 25.0473H67.869C68.9768 25.0473 69.8746 24.1857 69.8746 23.123C69.8746 22.0604 68.9767 21.1987 67.869 21.1987Z" fill="black"/>
</svg>
