<svg width="40" height="40" viewBox="0 0 40 40" fill="none" xmlns="http://www.w3.org/2000/svg">
<g clip-path="url(#clip0_294_25)">
<path d="M0 40L3.44 29.6807C1.69448 26.7448 0.689655 23.3186 0.689655 19.6552C0.689655 8.8 9.48966 0 20.3448 0C31.2 0 40 8.8 40 19.6552C40 30.5103 31.2 39.3103 20.3448 39.3103C17.0421 39.3103 13.9317 38.4917 11.2 37.0531L0 40Z" fill="#2CB742"/>
<path d="M29.8327 24.7695C29.1381 23.4569 26.5768 21.9559 26.5768 21.9559C25.9973 21.6256 25.298 21.5886 24.9676 22.1776C24.9676 22.1776 24.1353 23.1756 23.9237 23.3192C22.9568 23.9741 22.0611 23.9488 21.157 23.0447L19.0559 20.9437L16.9549 18.8426C16.0508 17.9386 16.0254 17.0429 16.6804 16.0761C16.824 15.8644 17.822 15.0321 17.822 15.0321C18.411 14.7012 18.3741 14.0025 18.0437 13.423C18.0437 13.423 16.5427 10.8617 15.2301 10.1672C14.6717 9.87159 13.9861 9.97504 13.5396 10.4215L12.6118 11.3494C9.66833 14.2927 11.1176 17.6156 14.061 20.5589L16.7511 23.249L19.4412 25.939C22.3847 28.8824 25.7075 30.3316 28.651 27.3883L29.5788 26.4605C30.0253 26.0129 30.1282 25.3273 29.8327 24.7695Z" fill="white"/>
</g>
<defs>
<clipPath id="clip0_294_25">
<rect width="40" height="40" fill="white"/>
</clipPath>
</defs>
</svg>
